# xmcd
#
# Track frame offsets: 
#        150
#        4125
#        22892
#        40386
#        58714
#        77097
#        91450
#        109530
#        126555
#        140546
#        159065
#        179840
#        200294
#
# Disc length: 2994 seconds
#
# Revision: 0
# Processed by: cddbd v1.5.2PL0 Copyright (c) Steve Scherf et al.
# Submitted via: ExactAudioCopy v1.3
#
DISCID=a90bb00d
DTITLE=LJ Echols - Call 911
DYEAR=2019
DGENRE=Blues
TTITLE0=I Was Wrong (Intro)
TTITLE1=Stop Looking
TTITLE2=Never
TTITLE3=Yes I Do
TTITLE4=Blind Cripple and Crazy
TTITLE5=Weak Spot
TTITLE6=How Low Can You Go
TTITLE7=Personally
TTITLE8=Call 911
TTITLE9=Come Back
TTITLE10=Tell on You
TTITLE11=Just a Little Bit
TTITLE12=Lord Use Me
EXTD=
EXTT0=
EXTT1=
EXTT2=
EXTT3=
EXTT4=
EXTT5=
EXTT6=
EXTT7=
EXTT8=
EXTT9=
EXTT10=
EXTT11=
EXTT12=
PLAYORDER=
